<svg width="1200" height="900" viewBox="0 0 1200 900" fill="none" xmlns="http://www.w3.org/2000/svg">
  <rect width="1200" height="900" rx="40" fill="#0F172A"/>
  <path d="M0 640C160 580 325 560 480 585C700 620 860 540 1200 630V900H0V640Z" fill="#166534"/>
  <path d="M0 710C165 655 320 640 460 660C650 690 870 640 1200 720V900H0V710Z" fill="#15803D"/>
  <circle cx="940" cy="180" r="82" fill="#FDE68A"/>
  <path d="M210 640C290 520 375 450 465 450C570 450 635 515 710 640" stroke="#F8FAFC" stroke-width="18" stroke-linecap="round"/>
  <ellipse cx="465" cy="450" rx="62" ry="50" fill="#F8FAFC"/>
  <circle cx="465" cy="430" r="16" fill="#0F172A"/>
  <path d="M160 645C210 590 250 570 305 560" stroke="#F8FAFC" stroke-width="14" stroke-linecap="round"/>
  <path d="M725 640C775 570 820 545 910 520" stroke="#F8FAFC" stroke-width="14" stroke-linecap="round"/>
  <text x="80" y="120" fill="#F8FAFC" font-family="Arial, sans-serif" font-size="64" font-weight="700">Psalm 23</text>
  <text x="80" y="172" fill="#DCFCE7" font-family="Arial, sans-serif" font-size="30">The Lord is my shepherd; I shall not want.</text>
</svg>
