<svg width="1200" height="900" viewBox="0 0 1200 900" fill="none" xmlns="http://www.w3.org/2000/svg">
  <rect width="1200" height="900" rx="40" fill="#431407"/>
  <rect y="620" width="1200" height="280" fill="#7C2D12"/>
  <circle cx="860" cy="180" r="120" fill="#FDE68A"/>
  <path d="M260 650C315 560 390 455 490 390C555 347 635 326 730 330" stroke="#F8FAFC" stroke-width="20" stroke-linecap="round"/>
  <path d="M260 650H765C760 555 715 475 640 425C580 386 505 375 430 395C350 418 295 490 260 650Z" fill="#292524"/>
  <circle cx="790" cy="590" r="98" fill="#D6D3D1"/>
  <path d="M470 250L470 420" stroke="#F8FAFC" stroke-width="18" stroke-linecap="round"/>
  <path d="M390 330H550" stroke="#F8FAFC" stroke-width="18" stroke-linecap="round"/>
  <text x="80" y="120" fill="#F8FAFC" font-family="Arial, sans-serif" font-size="64" font-weight="700">Resurrection Hope</text>
  <text x="80" y="172" fill="#FED7AA" font-family="Arial, sans-serif" font-size="30">New life, victory, and the empty tomb at the center of the Gospel.</text>
</svg>
